# xmcd
# 
# Track frame offsets:
#     182
#     23022
#     35275
#     49030
#     66437
#     82815
#     99415
#     116850
#     129717
#     150072
#     164520
#     183460
#     208522
#     227530
# 
# Disc length: 3375
# 
# Revision: 7
# Processed by: cddbd v1.5.2PL0 Copyright (c) Steve Scherf et al.
# Submitted via: fre:ac v1.0.27
# 
DISCID=ab0d2d0e
DTITLE=Various Artist - Jumping In The House Of God II
DYEAR=1996
DGENRE=Dance
TTITLE0=World Wide Message Tribe Featuring Cameron Dante - Kik-start
TTITLE1=HOG vs The World Wide Message Tribe - Jumping In The House Of God
TTITLE2=World Wide Message Tribe Featuring Cameron Dante - The Real Thing
TTITLE3=Jim Overton - I Believe In Jesus (Cheese Monster Mix)
TTITLE4=Sani - Joy
TTITLE5=Shine - Jesus, Name Above All Names
TTITLE6=HOG, Doug Walker and Shine - Holy
TTITLE7=World Wide Message Tribe - Reach For Heaven (Shaky Goat Edit)
TTITLE8=Lynsey Berry - Hear My Prayer
TTITLE9=World Wide Message Tribe - Kik Start (Random Appearance Mix)
TTITLE10=World Wide Message Tribe - Reach For Heaven (Stabilised Goat Version)
TTITLE11=World Wide Message Tribe - Real Thing (Loose Canon Mix)
TTITLE12=World Wide Message Tribe - Jumping In The House of God (Mun Mix)
TTITLE13=Sani - Joy (Extended Sani-Flow Version)
EXTD=
EXTT0=
EXTT1=
EXTT2=
EXTT3=
EXTT4=
EXTT5=
EXTT6=
EXTT7=
EXTT8=
EXTT9=
EXTT10=
EXTT11=
EXTT12=
EXTT13=
PLAYORDER=
